<svg id="Capa_1" data-name="Capa 1" xmlns="http://www.w3.org/2000/svg" viewBox="0 0 417.58 315.93"><title>icon</title><path d="M395.11,138.77c-13.24-8.16-56-18.61-116-18.61L247.46,83.22A35.11,35.11,0,0,0,220.81,70.8H126A42.35,42.35,0,0,0,98.46,81L61.09,113.14l-39.88,5.67A14,14,0,0,0,9.57,129.32l-4.84,19,105.61,49.25H405.76V157.83A22.28,22.28,0,0,0,395.11,138.77Z" style="fill:#ca916d"/><path d="M405.76,162.39c0-14.08-21-28.15-119.59-28.15H11.85a7,7,0,0,0-7.11,6.93v42.32l133.63,21h267.3Z" style="fill:#b96e57"/><path d="M405.76,190.51H75.92l-62.54-13.9a7.05,7.05,0,0,0-3,13.75l63.38,14a6.28,6.28,0,0,0,1.5.18h330.5a7.05,7.05,0,1,0,0-14.07Z" style="fill:#b56151"/><circle cx="342.44" cy="190.51" r="35.17" transform="translate(99.54 498.01) rotate(-80.78)" style="fill:#eae9e8"/><path d="M342.47,232.85a42.23,42.23,0,1,1,42.19-42.34,42.21,42.21,0,0,1-42.19,42.34Zm0-70.34a28.15,28.15,0,1,0,28.12,28.18v-.06a28.15,28.15,0,0,0-28.06-28.24h-.06Z" style="fill:#45404c"/><circle cx="342.44" cy="190.51" r="14.07" style="fill:#d7d5d7"/><circle cx="75.14" cy="190.51" r="35.17" transform="translate(-37.13 19.23) rotate(-11.72)" style="fill:#eae9e8"/><path d="M75.14,232.85a42.19,42.19,0,1,1,.06,0Zm0-70.34a28.15,28.15,0,1,0,28.15,28.15v0a28.15,28.15,0,0,0-28.06-28.24h-.09Z" style="fill:#45404c"/><circle cx="75.14" cy="190.51" r="14.07" style="fill:#d7d5d7"/><path d="M286.17,176.43H138.46a7,7,0,0,1-7-7h0a7,7,0,0,1,7-7H286.17a7,7,0,0,1,7.05,7h0A7,7,0,0,1,286.17,176.43Z" style="fill:#b56151"/><path d="M405.76,176.43h-7a7,7,0,0,1-7.05-7h0a7,7,0,0,1,7.05-7h7a7,7,0,0,1,7.11,7v0h0a7,7,0,0,1-7.08,7Z" style="fill:#b56151"/><path d="M61.1,113.14l37.36-32A42.31,42.31,0,0,1,126,70.8h94.86a35.12,35.12,0,0,1,26.68,12.3l31.66,37.06H112.59a112.13,112.13,0,0,1-18.48-1.53Z" style="fill:#b96e57"/><path d="M213,83A14.14,14.14,0,0,0,202.2,78H137.26a14,14,0,0,0-10,4.11l-21,21a10,10,0,0,0-3,7h0a9.93,9.93,0,0,0,9.93,9.93H236.47a3.51,3.51,0,0,0,2.7-5.76Z" style="fill:#514e58"/><polygon points="152.53 120.17 131.44 120.17 145.48 77.97 159.56 77.97 152.53 120.17" style="fill:#46434e"/><path d="M398.23,141.26h-6.55a7.06,7.06,0,0,0,0,14.08h13.78A22.31,22.31,0,0,0,398.23,141.26Z" style="fill:#eae9e8"/><path d="M247.46,83.22A35.94,35.94,0,0,0,241.82,78H230.38a3.51,3.51,0,0,0-2.7,5.76l26.14,31.39a14.11,14.11,0,0,0,10.8,5h14.53Z" style="fill:#514e58"/><path d="M4.74,141.26v7.05h14a7.05,7.05,0,1,0,0-14.07H11.85a7,7,0,0,0-7.11,6.93Z" style="fill:#ab4953"/></svg>